<?xml version="1.0" encoding="utf-8"?>
<!DOCTYPE svg PUBLIC "-//W3C//DTD SVG 1.1//EN" "http://www.w3.org/Graphics/SVG/1.1/DTD/svg11.dtd">
<svg version="1.1" id="Layer_1"
     xmlns="http://www.w3.org/2000/svg"
     xmlns:xlink="http://www.w3.org/1999/xlink"
     x="0px" y="0px"
     viewBox="0 0 2320 2320"
     width="100%"
     height="auto"
     preserveAspectRatio="xMidYMid meet"
     xml:space="preserve">
	<path d="M250,0c138.077,0,250,111.93,250,250c0,138.077-111.923,250-250,250C111.93,500,0,388.077,0,250C0,111.93,111.93,0,250,0z"
	/>
</g></g><g transform="translate(1040,0) scale(0.16,0.16)"><g transform="" style="fill: rgb(0, 0, 0);">
<path d="M250,0c138.077,0,250,111.93,250,250c0,138.077-111.923,250-250,250C111.93,500,0,388.077,0,250C0,111.93,111.93,0,250,0z"
	/>
</g></g><g transform="translate(720,80) scale(0.16,0.16)"><g transform="" style="fill: rgb(0, 0, 0);">
<path d="M250,0c138.077,0,250,111.93,250,250c0,138.077-111.923,250-250,250C111.93,500,0,388.077,0,250C0,111.93,111.93,0,250,0z"
	/>
</g></g><g transform="translate(800,80) scale(0.16,0.16)"><g transform="" style="fill: rgb(0, 0, 0);">
<path d="M250,0c138.077,0,250,111.93,250,250c0,138.077-111.923,250-250,250C111.93,500,0,388.077,0,250C0,111.93,111.93,0,250,0z"
	/>
</g></g><g transform="translate(880,80) scale(0.16,0.16)"><g transform="" style="fill: rgb(0, 0, 0);">
<path d="M250,0c138.077,0,250,111.93,250,250c0,138.077-111.923,250-250,250C111.93,500,0,388.077,0,250C0,111.93,111.93,0,250,0z"
	/>
</g></g><g transform="translate(1040,80) scale(0.16,0.16)"><g transform="" style="fill: rgb(0, 0, 0);">
<path d="M250,0c138.077,0,250,111.93,250,250c0,138.077-111.923,250-250,250C111.93,500,0,388.077,0,250C0,111.93,111.93,0,250,0z"
	/>
</g></g><g transform="translate(1120,80) scale(0.16,0.16)"><g transform="" style="fill: rgb(0, 0, 0);">
<path d="M250,0c138.077,0,250,111.93,250,250c0,138.077-111.923,250-250,250C111.93,500,0,388.077,0,250C0,111.93,111.93,0,250,0z"
	/>
</g></g><g transform="translate(1200,80) scale(0.16,0.16)"><g transform="" style="fill: rgb(0, 0, 0);">
<path d="M250,0c138.077,0,250,111.93,250,250c0,138.077-111.923,250-250,250C111.93,500,0,388.077,0,250C0,111.93,111.93,0,250,0z"
	/>
</g></g><g transform="translate(640,160) scale(0.16,0.16)"><g transform="" style="fill: rgb(0, 0, 0);">
<path d="M250,0c138.077,0,250,111.93,250,250c0,138.077-111.923,250-250,250C111.93,500,0,388.077,0,250C0,111.93,111.93,0,250,0z"
	/>
</g></g><g transform="translate(800,160) scale(0.16,0.16)"><g transform="" style="fill: rgb(0, 0, 0);">
<path d="M250,0c138.077,0,250,111.93,250,250c0,138.077-111.923,250-250,250C111.93,500,0,388.077,0,250C0,111.93,111.93,0,250,0z"
	/>
</g></g><g transform="translate(640,240) scale(0.16,0.16)"><g transform="" style="fill: rgb(0, 0, 0);">
<path d="M250,0c138.077,0,250,111.93,250,250c0,138.077-111.923,250-250,250C111.93,500,0,388.077,0,250C0,111.93,111.93,0,250,0z"
	/>
</g></g><g transform="translate(720,240) scale(0.16,0.16)"><g transform="" style="fill: rgb(0, 0, 0);">
<path d="M250,0c138.077,0,250,111.93,250,250c0,138.077-111.923,250-250,250C111.93,500,0,388.077,0,250C0,111.93,111.93,0,250,0z"
	/>
</g></g><g transform="translate(880,240) scale(0.16,0.16)"><g transform="" style="fill: rgb(0, 0, 0);">
<path d="M250,0c138.077,0,250,111.93,250,250c0,138.077-111.923,250-250,250C111.93,500,0,388.077,0,250C0,111.93,111.93,0,250,0z"
	/>
</g></g><g transform="translate(1040,240) scale(0.16,0.16)"><g transform="" style="fill: rgb(0, 0, 0);">
<path d="M250,0c138.077,0,250,111.93,250,250c0,138.077-111.923,250-250,250C111.93,500,0,388.077,0,250C0,111.93,111.93,0,250,0z"
	/>
</g></g><g transform="translate(1120,240) scale(0.16,0.16)"><g transform="" style="fill: rgb(0, 0, 0);">
<path d="M250,0c138.077,0,250,111.93,250,250c0,138.077-111.923,250-250,250C111.93,500,0,388.077,0,250C0,111.93,111.93,0,250,0z"
	/>
</g></g><g transform="translate(1200,240) scale(0.16,0.16)"><g transform="" style="fill: rgb(0, 0, 0);">
<path d="M250,0c138.077,0,250,111.93,250,250c0,138.077-111.923,250-250,250C111.93,500,0,388.077,0,250C0,111.93,111.93,0,250,0z"
	/>
</g></g><g transform="translate(640,320) scale(0.16,0.16)"><g transform="" style="fill: rgb(0, 0, 0);">
<path d="M250,0c138.077,0,250,111.93,250,250c0,138.077-111.923,250-250,250C111.93,500,0,388.077,0,250C0,111.93,111.93,0,250,0z"
	/>
</g></g><g transform="translate(720,320) scale(0.16,0.16)"><g transform="" style="fill: rgb(0, 0, 0);">
<path d="M250,0c138.077,0,250,111.93,250,250c0,138.077-111.923,250-250,250C111.93,500,0,388.077,0,250C0,111.93,111.93,0,250,0z"
	/>
</g></g><g transform="translate(1040,320) scale(0.16,0.16)"><g transform="" style="fill: rgb(0, 0, 0);">
<path d="M250,0c138.077,0,250,111.93,250,250c0,138.077-111.923,250-250,250C111.93,500,0,388.077,0,250C0,111.93,111.93,0,250,0z"
	/>
</g></g><g transform="translate(1280,320) scale(0.16,0.16)"><g transform="" style="fill: rgb(0, 0, 0);">
<path d="M250,0c138.077,0,250,111.93,250,250c0,138.077-111.923,250-250,250C111.93,500,0,388.077,0,250C0,111.93,111.93,0,250,0z"
	/>
</g></g><g transform="translate(640,400) scale(0.16,0.16)"><g transform="" style="fill: rgb(0, 0, 0);">
<path d="M250,0c138.077,0,250,111.93,250,250c0,138.077-111.923,250-250,250C111.93,500,0,388.077,0,250C0,111.93,111.93,0,250,0z"
	/>
</g></g><g transform="translate(800,400) scale(0.16,0.16)"><g transform="" style="fill: rgb(0, 0, 0);">
<path d="M250,0c138.077,0,250,111.93,250,250c0,138.077-111.923,250-250,250C111.93,500,0,388.077,0,250C0,111.93,111.93,0,250,0z"
	/>
</g></g><g transform="translate(880,400) scale(0.16,0.16)"><g transform="" style="fill: rgb(0, 0, 0);">
<path d="M250,0c138.077,0,250,111.93,250,250c0,138.077-111.923,250-250,250C111.93,500,0,388.077,0,250C0,111.93,111.93,0,250,0z"
	/>
</g></g><g transform="translate(1200,400) scale(0.16,0.16)"><g transform="" style="fill: rgb(0, 0, 0);">
<path d="M250,0c138.077,0,250,111.93,250,250c0,138.077-111.923,250-250,250C111.93,500,0,388.077,0,250C0,111.93,111.93,0,250,0z"
	/>
</g></g><g transform="translate(1280,400) scale(0.16,0.16)"><g transform="" style="fill: rgb(0, 0, 0);">
<path d="M250,0c138.077,0,250,111.93,250,250c0,138.077-111.923,250-250,250C111.93,500,0,388.077,0,250C0,111.93,111.93,0,250,0z"
	/>
</g></g><g transform="translate(640,480) scale(0.16,0.16)"><g transform="" style="fill: rgb(0, 0, 0);">
<path d="M250,0c138.077,0,250,111.93,250,250c0,138.077-111.923,250-250,250C111.93,500,0,388.077,0,250C0,111.93,111.93,0,250,0z"
	/>
</g></g><g transform="translate(800,480) scale(0.16,0.16)"><g transform="" style="fill: rgb(0, 0, 0);">
<path d="M250,0c138.077,0,250,111.93,250,250c0,138.077-111.923,250-250,250C111.93,500,0,388.077,0,250C0,111.93,111.93,0,250,0z"
	/>
</g></g><g transform="translate(960,480) scale(0.16,0.16)"><g transform="" style="fill: rgb(0, 0, 0);">
<path d="M250,0c138.077,0,250,111.93,250,250c0,138.077-111.923,250-250,250C111.93,500,0,388.077,0,250C0,111.93,111.93,0,250,0z"
	/>
</g></g><g transform="translate(1120,480) scale(0.16,0.16)"><g transform="" style="fill: rgb(0, 0, 0);">
<path d="M250,0c138.077,0,250,111.93,250,250c0,138.077-111.923,250-250,250C111.93,500,0,388.077,0,250C0,111.93,111.93,0,250,0z"
	/>
</g></g><g transform="translate(1280,480) scale(0.16,0.16)"><g transform="" style="fill: rgb(0, 0, 0);">
<path d="M250,0c138.077,0,250,111.93,250,250c0,138.077-111.923,250-250,250C111.93,500,0,388.077,0,250C0,111.93,111.93,0,250,0z"
	/>
</g></g><g transform="translate(640,560) scale(0.16,0.16)"><g transform="" style="fill: rgb(0, 0, 0);">
<path d="M250,0c138.077,0,250,111.93,250,250c0,138.077-111.923,250-250,250C111.93,500,0,388.077,0,250C0,111.93,111.93,0,250,0z"
	/>
</g></g><g transform="translate(1120,560) scale(0.16,0.16)"><g transform="" style="fill: rgb(0, 0, 0);">
<path d="M250,0c138.077,0,250,111.93,250,250c0,138.077-111.923,250-250,250C111.93,500,0,388.077,0,250C0,111.93,111.93,0,250,0z"
	/>
</g></g><g transform="translate(1200,560) scale(0.16,0.16)"><g transform="" style="fill: rgb(0, 0, 0);">
<path d="M250,0c138.077,0,250,111.93,250,250c0,138.077-111.923,250-250,250C111.93,500,0,388.077,0,250C0,111.93,111.93,0,250,0z"
	/>
</g></g><g transform="translate(1280,560) scale(0.16,0.16)"><g transform="" style="fill: rgb(0, 0, 0);">
<path d="M250,0c138.077,0,250,111.93,250,250c0,138.077-111.923,250-250,250C111.93,500,0,388.077,0,250C0,111.93,111.93,0,250,0z"
	/>
</g></g><g transform="translate(0,640) scale(0.16,0.16)"><g transform="" style="fill: rgb(0, 0, 0);">
<path d="M250,0c138.077,0,250,111.93,250,250c0,138.077-111.923,250-250,250C111.93,500,0,388.077,0,250C0,111.93,111.93,0,250,0z"
	/>
</g></g><g transform="translate(160,640) scale(0.16,0.16)"><g transform="" style="fill: rgb(0, 0, 0);">
<path d="M250,0c138.077,0,250,111.93,250,250c0,138.077-111.923,250-250,250C111.93,500,0,388.077,0,250C0,111.93,111.93,0,250,0z"
	/>
</g></g><g transform="translate(240,640) scale(0.16,0.16)"><g transform="" style="fill: rgb(0, 0, 0);">
<path d="M250,0c138.077,0,250,111.93,250,250c0,138.077-111.923,250-250,250C111.93,500,0,388.077,0,250C0,111.93,111.93,0,250,0z"
	/>
</g></g><g transform="translate(320,640) scale(0.16,0.16)"><g transform="" style="fill: rgb(0, 0, 0);">
<path d="M250,0c138.077,0,250,111.93,250,250c0,138.077-111.923,250-250,250C111.93,500,0,388.077,0,250C0,111.93,111.93,0,250,0z"
	/>
</g></g><g transform="translate(400,640) scale(0.16,0.16)"><g transform="" style="fill: rgb(0, 0, 0);">
<path d="M250,0c138.077,0,250,111.93,250,250c0,138.077-111.923,250-250,250C111.93,500,0,388.077,0,250C0,111.93,111.93,0,250,0z"
	/>
</g></g><g transform="translate(480,640) scale(0.16,0.16)"><g transform="" style="fill: rgb(0, 0, 0);">
<path d="M250,0c138.077,0,250,111.93,250,250c0,138.077-111.923,250-250,250C111.93,500,0,388.077,0,250C0,111.93,111.93,0,250,0z"
	/>
</g></g><g transform="translate(720,640) scale(0.16,0.16)"><g transform="" style="fill: rgb(0, 0, 0);">
<path d="M250,0c138.077,0,250,111.93,250,250c0,138.077-111.923,250-250,250C111.93,500,0,388.077,0,250C0,111.93,111.93,0,250,0z"
	/>
</g></g><g transform="translate(800,640) scale(0.16,0.16)"><g transform="" style="fill: rgb(0, 0, 0);">
<path d="M250,0c138.077,0,250,111.93,250,250c0,138.077-111.923,250-250,250C111.93,500,0,388.077,0,250C0,111.93,111.93,0,250,0z"
	/>
</g></g><g transform="translate(880,640) scale(0.16,0.16)"><g transform="" style="fill: rgb(0, 0, 0);">
<path d="M250,0c138.077,0,250,111.93,250,250c0,138.077-111.923,250-250,250C111.93,500,0,388.077,0,250C0,111.93,111.93,0,250,0z"
	/>
</g></g><g transform="translate(960,640) scale(0.16,0.16)"><g transform="" style="fill: rgb(0, 0, 0);">
<path d="M250,0c138.077,0,250,111.93,250,250c0,138.077-111.923,250-250,250C111.93,500,0,388.077,0,250C0,111.93,111.93,0,250,0z"
	/>
</g></g><g transform="translate(1040,640) scale(0.16,0.16)"><g transform="" style="fill: rgb(0, 0, 0);">
<path d="M250,0c138.077,0,250,111.93,250,250c0,138.077-111.923,250-250,250C111.93,500,0,388.077,0,250C0,111.93,111.93,0,250,0z"
	/>
</g></g><g transform="translate(1120,640) scale(0.16,0.16)"><g transform="" style="fill: rgb(0, 0, 0);">
<path d="M250,0c138.077,0,250,111.93,250,250c0,138.077-111.923,250-250,250C111.93,500,0,388.077,0,250C0,111.93,111.93,0,250,0z"
	/>
</g></g><g transform="translate(1200,640) scale(0.16,0.16)"><g transform="" style="fill: rgb(0, 0, 0);">
<path d="M250,0c138.077,0,250,111.93,250,250c0,138.077-111.923,250-250,250C111.93,500,0,388.077,0,250C0,111.93,111.93,0,250,0z"
	/>
</g></g><g transform="translate(1280,640) scale(0.16,0.16)"><g transform="" style="fill: rgb(0, 0, 0);">
<path d="M250,0c138.077,0,250,111.93,250,250c0,138.077-111.923,250-250,250C111.93,500,0,388.077,0,250C0,111.93,111.93,0,250,0z"
	/>
</g></g><g transform="translate(1440,640) scale(0.16,0.16)"><g transform="" style="fill: rgb(0, 0, 0);">
<path d="M250,0c138.077,0,250,111.93,250,250c0,138.077-111.923,250-250,250C111.93,500,0,388.077,0,250C0,111.93,111.93,0,250,0z"
	/>
</g></g><g transform="translate(1520,640) scale(0.16,0.16)"><g transform="" style="fill: rgb(0, 0, 0);">
<path d="M250,0c138.077,0,250,111.93,250,250c0,138.077-111.923,250-250,250C111.93,500,0,388.077,0,250C0,111.93,111.93,0,250,0z"
	/>
</g></g><g transform="translate(1600,640) scale(0.16,0.16)"><g transform="" style="fill: rgb(0, 0, 0);">
<path d="M250,0c138.077,0,250,111.93,250,250c0,138.077-111.923,250-250,250C111.93,500,0,388.077,0,250C0,111.93,111.93,0,250,0z"
	/>
</g></g><g transform="translate(1680,640) scale(0.16,0.16)"><g transform="" style="fill: rgb(0, 0, 0);">
<path d="M250,0c138.077,0,250,111.93,250,250c0,138.077-111.923,250-250,250C111.93,500,0,388.077,0,250C0,111.93,111.93,0,250,0z"
	/>
</g></g><g transform="translate(1760,640) scale(0.16,0.16)"><g transform="" style="fill: rgb(0, 0, 0);">
<path d="M250,0c138.077,0,250,111.93,250,250c0,138.077-111.923,250-250,250C111.93,500,0,388.077,0,250C0,111.93,111.93,0,250,0z"
	/>
</g></g><g transform="translate(0,720) scale(0.16,0.16)"><g transform="" style="fill: rgb(0, 0, 0);">
<path d="M250,0c138.077,0,250,111.93,250,250c0,138.077-111.923,250-250,250C111.93,500,0,388.077,0,250C0,111.93,111.93,0,250,0z"
	/>
</g></g><g transform="translate(240,720) scale(0.16,0.16)"><g transform="" style="fill: rgb(0, 0, 0);">
<path d="M250,0c138.077,0,250,111.93,250,250c0,138.077-111.923,250-250,250C111.93,500,0,388.077,0,250C0,111.93,111.93,0,250,0z"
	/>
</g></g><g transform="translate(560,720) scale(0.16,0.16)"><g transform="" style="fill: rgb(0, 0, 0);">
<path d="M250,0c138.077,0,250,111.93,250,250c0,138.077-111.923,250-250,250C111.93,500,0,388.077,0,250C0,111.93,111.93,0,250,0z"
	/>
</g></g><g transform="translate(640,720) scale(0.16,0.16)"><g transform="" style="fill: rgb(0, 0, 0);">
<path d="M250,0c138.077,0,250,111.93,250,250c0,138.077-111.923,250-250,250C111.93,500,0,388.077,0,250C0,111.93,111.93,0,250,0z"
	/>
</g></g><g transform="translate(1040,720) scale(0.16,0.16)"><g transform="" style="fill: rgb(0, 0, 0);">
<path d="M250,0c138.077,0,250,111.93,250,250c0,138.077-111.923,250-250,250C111.93,500,0,388.077,0,250C0,111.93,111.93,0,250,0z"
	/>
</g></g><g transform="translate(1280,720) scale(0.16,0.16)"><g transform="" style="fill: rgb(0, 0, 0);">
<path d="M250,0c138.077,0,250,111.93,250,250c0,138.077-111.923,250-250,250C111.93,500,0,388.077,0,250C0,111.93,111.93,0,250,0z"
	/>
</g></g><g transform="translate(1520,720) scale(0.16,0.16)"><g transform="" style="fill: rgb(0, 0, 0);">
<path d="M250,0c138.077,0,250,111.93,250,250c0,138.077-111.923,250-250,250C111.93,500,0,388.077,0,250C0,111.93,111.93,0,250,0z"
	/>
</g></g><g transform="translate(1680,720) scale(0.16,0.16)"><g transform="" style="fill: rgb(0, 0, 0);">
<path d="M250,0c138.077,0,250,111.93,250,250c0,138.077-111.923,250-250,250C111.93,500,0,388.077,0,250C0,111.93,111.93,0,250,0z"
	/>
</g></g><g transform="translate(1840,720) scale(0.16,0.16)"><g transform="" style="fill: rgb(0, 0, 0);">
<path d="M250,0c138.077,0,250,111.93,250,250c0,138.077-111.923,250-250,250C111.93,500,0,388.077,0,250C0,111.93,111.93,0,250,0z"
	/>
</g></g><g transform="translate(0,800) scale(0.16,0.16)"><g transform="" style="fill: rgb(0, 0, 0);">
<path d="M250,0c138.077,0,250,111.93,250,250c0,138.077-111.923,250-250,250C111.93,500,0,388.077,0,250C0,111.93,111.93,0,250,0z"
	/>
</g></g><g transform="translate(80,800) scale(0.16,0.16)"><g transform="" style="fill: rgb(0, 0, 0);">
<path d="M250,0c138.077,0,250,111.93,250,250c0,138.077-111.923,250-250,250C111.93,500,0,388.077,0,250C0,111.93,111.93,0,250,0z"
	/>
</g></g><g transform="translate(160,800) scale(0.16,0.16)"><g transform="" style="fill: rgb(0, 0, 0);">
<path d="M250,0c138.077,0,250,111.93,250,250c0,138.077-111.923,250-250,250C111.93,500,0,388.077,0,250C0,111.93,111.93,0,250,0z"
	/>
</g></g><g transform="translate(400,800) scale(0.16,0.16)"><g transform="" style="fill: rgb(0, 0, 0);">
<path d="M250,0c138.077,0,250,111.93,250,250c0,138.077-111.923,250-250,250C111.93,500,0,388.077,0,250C0,111.93,111.93,0,250,0z"
	/>
</g></g><g transform="translate(480,800) scale(0.16,0.16)"><g transform="" style="fill: rgb(0, 0, 0);">
<path d="M250,0c138.077,0,250,111.93,250,250c0,138.077-111.923,250-250,250C111.93,500,0,388.077,0,250C0,111.93,111.93,0,250,0z"
	/>
</g></g><g transform="translate(560,800) scale(0.16,0.16)"><g transform="" style="fill: rgb(0, 0, 0);">
<path d="M250,0c138.077,0,250,111.93,250,250c0,138.077-111.923,250-250,250C111.93,500,0,388.077,0,250C0,111.93,111.93,0,250,0z"
	/>
</g></g><g transform="translate(640,800) scale(0.16,0.16)"><g transform="" style="fill: rgb(0, 0, 0);">
<path d="M250,0c138.077,0,250,111.93,250,250c0,138.077-111.923,250-250,250C111.93,500,0,388.077,0,250C0,111.93,111.93,0,250,0z"
	/>
</g></g><g transform="translate(720,800) scale(0.16,0.16)"><g transform="" style="fill: rgb(0, 0, 0);">
<path d="M250,0c138.077,0,250,111.93,250,250c0,138.077-111.923,250-250,250C111.93,500,0,388.077,0,250C0,111.93,111.93,0,250,0z"
	/>
</g></g><g transform="translate(800,800) scale(0.16,0.16)"><g transform="" style="fill: rgb(0, 0, 0);">
<path d="M250,0c138.077,0,250,111.93,250,250c0,138.077-111.923,250-250,250C111.93,500,0,388.077,0,250C0,111.93,111.93,0,250,0z"
	/>
</g></g><g transform="translate(880,800) scale(0.16,0.16)"><g transform="" style="fill: rgb(0, 0, 0);">
<path d="M250,0c138.077,0,250,111.93,250,250c0,138.077-111.923,250-250,250C111.93,500,0,388.077,0,250C0,111.93,111.93,0,250,0z"
	/>
</g></g><g transform="translate(960,800) scale(0.16,0.16)"><g transform="" style="fill: rgb(0, 0, 0);">
<path d="M250,0c138.077,0,250,111.93,250,250c0,138.077-111.923,250-250,250C111.93,500,0,388.077,0,250C0,111.93,111.93,0,250,0z"
	/>
</g></g><g transform="translate(1040,800) scale(0.16,0.16)"><g transform="" style="fill: rgb(0, 0, 0);">
<path d="M250,0c138.077,0,250,111.93,250,250c0,138.077-111.923,250-250,250C111.93,500,0,388.077,0,250C0,111.93,111.93,0,250,0z"
	/>
</g></g><g transform="translate(1120,800) scale(0.16,0.16)"><g transform="" style="fill: rgb(0, 0, 0);">
<path d="M250,0c138.077,0,250,111.93,250,250c0,138.077-111.923,250-250,250C111.93,500,0,388.077,0,250C0,111.93,111.93,0,250,0z"
	/>
</g></g><g transform="translate(1200,800) scale(0.16,0.16)"><g transform="" style="fill: rgb(0, 0, 0);">
<path d="M250,0c138.077,0,250,111.93,250,250c0,138.077-111.923,250-250,250C111.93,500,0,388.077,0,250C0,111.93,111.93,0,250,0z"
	/>
</g></g><g transform="translate(1440,800) scale(0.16,0.16)"><g transform="" style="fill: rgb(0, 0, 0);">
<path d="M250,0c138.077,0,250,111.93,250,250c0,138.077-111.923,250-250,250C111.93,500,0,388.077,0,250C0,111.93,111.93,0,250,0z"
	/>
</g></g><g transform="translate(1600,800) scale(0.16,0.16)"><g transform="" style="fill: rgb(0, 0, 0);">
<path d="M250,0c138.077,0,250,111.93,250,250c0,138.077-111.923,250-250,250C111.93,500,0,388.077,0,250C0,111.93,111.93,0,250,0z"
	/>
</g></g><g transform="translate(1760,800) scale(0.16,0.16)"><g transform="" style="fill: rgb(0, 0, 0);">
<path d="M250,0c138.077,0,250,111.93,250,250c0,138.077-111.923,250-250,250C111.93,500,0,388.077,0,250C0,111.93,111.93,0,250,0z"
	/>
</g></g><g transform="translate(1840,800) scale(0.16,0.16)"><g transform="" style="fill: rgb(0, 0, 0);">
<path d="M250,0c138.077,0,250,111.93,250,250c0,138.077-111.923,250-250,250C111.93,500,0,388.077,0,250C0,111.93,111.93,0,250,0z"
	/>
</g></g><g transform="translate(1920,800) scale(0.16,0.16)"><g transform="" style="fill: rgb(0, 0, 0);">
<path d="M250,0c138.077,0,250,111.93,250,250c0,138.077-111.923,250-250,250C111.93,500,0,388.077,0,250C0,111.93,111.93,0,250,0z"
	/>
</g></g><g transform="translate(80,880) scale(0.16,0.16)"><g transform="" style="fill: rgb(0, 0, 0);">
<path d="M250,0c138.077,0,250,111.93,250,250c0,138.077-111.923,250-250,250C111.93,500,0,388.077,0,250C0,111.93,111.93,0,250,0z"
	/>
</g></g><g transform="translate(160,880) scale(0.16,0.16)"><g transform="" style="fill: rgb(0, 0, 0);">
<path d="M250,0c138.077,0,250,111.93,250,250c0,138.077-111.923,250-250,250C111.93,500,0,388.077,0,250C0,111.93,111.93,0,250,0z"
	/>
</g></g><g transform="translate(240,880) scale(0.16,0.16)"><g transform="" style="fill: rgb(0, 0, 0);">
<path d="M250,0c138.077,0,250,111.93,250,250c0,138.077-111.923,250-250,250C111.93,500,0,388.077,0,250C0,111.93,111.93,0,250,0z"
	/>
</g></g><g transform="translate(320,880) scale(0.16,0.16)"><g transform="" style="fill: rgb(0, 0, 0);">
<path d="M250,0c138.077,0,250,111.93,250,250c0,138.077-111.923,250-250,250C111.93,500,0,388.077,0,250C0,111.93,111.93,0,250,0z"
	/>
</g></g><g transform="translate(640,880) scale(0.16,0.16)"><g transform="" style="fill: rgb(0, 0, 0);">
<path d="M250,0c138.077,0,250,111.93,250,250c0,138.077-111.923,250-250,250C111.93,500,0,388.077,0,250C0,111.93,111.93,0,250,0z"
	/>
</g></g><g transform="translate(720,880) scale(0.16,0.16)"><g transform="" style="fill: rgb(0, 0, 0);">
<path d="M250,0c138.077,0,250,111.93,250,250c0,138.077-111.923,250-250,250C111.93,500,0,388.077,0,250C0,111.93,111.93,0,250,0z"
	/>
</g></g><g transform="translate(800,880) scale(0.16,0.16)"><g transform="" style="fill: rgb(0, 0, 0);">
<path d="M250,0c138.077,0,250,111.93,250,250c0,138.077-111.923,250-250,250C111.93,500,0,388.077,0,250C0,111.93,111.93,0,250,0z"
	/>
</g></g><g transform="translate(1120,880) scale(0.16,0.16)"><g transform="" style="fill: rgb(0, 0, 0);">
<path d="M250,0c138.077,0,250,111.93,250,250c0,138.077-111.923,250-250,250C111.93,500,0,388.077,0,250C0,111.93,111.93,0,250,0z"
	/>
</g></g><g transform="translate(1200,880) scale(0.16,0.16)"><g transform="" style="fill: rgb(0, 0, 0);">
<path d="M250,0c138.077,0,250,111.93,250,250c0,138.077-111.923,250-250,250C111.93,500,0,388.077,0,250C0,111.93,111.93,0,250,0z"
	/>
</g></g><g transform="translate(1360,880) scale(0.16,0.16)"><g transform="" style="fill: rgb(0, 0, 0);">
<path d="M250,0c138.077,0,250,111.93,250,250c0,138.077-111.923,250-250,250C111.93,500,0,388.077,0,250C0,111.93,111.93,0,250,0z"
	/>
</g></g><g transform="translate(1440,880) scale(0.16,0.16)"><g transform="" style="fill: rgb(0, 0, 0);">
<path d="M250,0c138.077,0,250,111.93,250,250c0,138.077-111.923,250-250,250C111.93,500,0,388.077,0,250C0,111.93,111.93,0,250,0z"
	/>
</g></g><g transform="translate(1840,880) scale(0.16,0.16)"><g transform="" style="fill: rgb(0, 0, 0);">
<path d="M250,0c138.077,0,250,111.93,250,250c0,138.077-111.923,250-250,250C111.93,500,0,388.077,0,250C0,111.93,111.93,0,250,0z"
	/>
</g></g><g transform="translate(1920,880) scale(0.16,0.16)"><g transform="" style="fill: rgb(0, 0, 0);">
<path d="M250,0c138.077,0,250,111.93,250,250c0,138.077-111.923,250-250,250C111.93,500,0,388.077,0,250C0,111.93,111.93,0,250,0z"
	/>
</g></g><g transform="translate(0,960) scale(0.16,0.16)"><g transform="" style="fill: rgb(0, 0, 0);">
<path d="M250,0c138.077,0,250,111.93,250,250c0,138.077-111.923,250-250,250C111.93,500,0,388.077,0,250C0,111.93,111.93,0,250,0z"
	/>
</g></g><g transform="translate(240,960) scale(0.16,0.16)"><g transform="" style="fill: rgb(0, 0, 0);">
<path d="M250,0c138.077,0,250,111.93,250,250c0,138.077-111.923,250-250,250C111.93,500,0,388.077,0,250C0,111.93,111.93,0,250,0z"
	/>
</g></g><g transform="translate(320,960) scale(0.16,0.16)"><g transform="" style="fill: rgb(0, 0, 0);">
<path d="M250,0c138.077,0,250,111.93,250,250c0,138.077-111.923,250-250,250C111.93,500,0,388.077,0,250C0,111.93,111.93,0,250,0z"
	/>
</g></g><g transform="translate(480,960) scale(0.16,0.16)"><g transform="" style="fill: rgb(0, 0, 0);">
<path d="M250,0c138.077,0,250,111.93,250,250c0,138.077-111.923,250-250,250C111.93,500,0,388.077,0,250C0,111.93,111.93,0,250,0z"
	/>
</g></g><g transform="translate(560,960) scale(0.16,0.16)"><g transform="" style="fill: rgb(0, 0, 0);">
<path d="M250,0c138.077,0,250,111.93,250,250c0,138.077-111.923,250-250,250C111.93,500,0,388.077,0,250C0,111.93,111.93,0,250,0z"
	/>
</g></g><g transform="translate(720,960) scale(0.16,0.16)"><g transform="" style="fill: rgb(0, 0, 0);">
<path d="M250,0c138.077,0,250,111.93,250,250c0,138.077-111.923,250-250,250C111.93,500,0,388.077,0,250C0,111.93,111.93,0,250,0z"
	/>
</g></g><g transform="translate(880,960) scale(0.16,0.16)"><g transform="" style="fill: rgb(0, 0, 0);">
<path d="M250,0c138.077,0,250,111.93,250,250c0,138.077-111.923,250-250,250C111.93,500,0,388.077,0,250C0,111.93,111.93,0,250,0z"
	/>
</g></g><g transform="translate(1040,960) scale(0.16,0.16)"><g transform="" style="fill: rgb(0, 0, 0);">
<path d="M250,0c138.077,0,250,111.93,250,250c0,138.077-111.923,250-250,250C111.93,500,0,388.077,0,250C0,111.93,111.93,0,250,0z"
	/>
</g></g><g transform="translate(1440,960) scale(0.16,0.16)"><g transform="" style="fill: rgb(0, 0, 0);">
<path d="M250,0c138.077,0,250,111.93,250,250c0,138.077-111.923,250-250,250C111.93,500,0,388.077,0,250C0,111.93,111.93,0,250,0z"
	/>
</g></g><g transform="translate(1520,960) scale(0.16,0.16)"><g transform="" style="fill: rgb(0, 0, 0);">
<path d="M250,0c138.077,0,250,111.93,250,250c0,138.077-111.923,250-250,250C111.93,500,0,388.077,0,250C0,111.93,111.93,0,250,0z"
	/>
</g></g><g transform="translate(1600,960) scale(0.16,0.16)"><g transform="" style="fill: rgb(0, 0, 0);">
<path d="M250,0c138.077,0,250,111.93,250,250c0,138.077-111.923,250-250,250C111.93,500,0,388.077,0,250C0,111.93,111.93,0,250,0z"
	/>
</g></g><g transform="translate(1760,960) scale(0.16,0.16)"><g transform="" style="fill: rgb(0, 0, 0);">
<path d="M250,0c138.077,0,250,111.93,250,250c0,138.077-111.923,250-250,250C111.93,500,0,388.077,0,250C0,111.93,111.93,0,250,0z"
	/>
</g></g><g transform="translate(1920,960) scale(0.16,0.16)"><g transform="" style="fill: rgb(0, 0, 0);">
<path d="M250,0c138.077,0,250,111.93,250,250c0,138.077-111.923,250-250,250C111.93,500,0,388.077,0,250C0,111.93,111.93,0,250,0z"
	/>
</g></g><g transform="translate(0,1040) scale(0.16,0.16)"><g transform="" style="fill: rgb(0, 0, 0);">
<path d="M250,0c138.077,0,250,111.93,250,250c0,138.077-111.923,250-250,250C111.93,500,0,388.077,0,250C0,111.93,111.93,0,250,0z"
	/>
</g></g><g transform="translate(80,1040) scale(0.16,0.16)"><g transform="" style="fill: rgb(0, 0, 0);">
<path d="M250,0c138.077,0,250,111.93,250,250c0,138.077-111.923,250-250,250C111.93,500,0,388.077,0,250C0,111.93,111.93,0,250,0z"
	/>
</g></g><g transform="translate(160,1040) scale(0.16,0.16)"><g transform="" style="fill: rgb(0, 0, 0);">
<path d="M250,0c138.077,0,250,111.93,250,250c0,138.077-111.923,250-250,250C111.93,500,0,388.077,0,250C0,111.93,111.93,0,250,0z"
	/>
</g></g><g transform="translate(240,1040) scale(0.16,0.16)"><g transform="" style="fill: rgb(0, 0, 0);">
<path d="M250,0c138.077,0,250,111.93,250,250c0,138.077-111.923,250-250,250C111.93,500,0,388.077,0,250C0,111.93,111.93,0,250,0z"
	/>
</g></g><g transform="translate(320,1040) scale(0.16,0.16)"><g transform="" style="fill: rgb(0, 0, 0);">
<path d="M250,0c138.077,0,250,111.93,250,250c0,138.077-111.923,250-250,250C111.93,500,0,388.077,0,250C0,111.93,111.93,0,250,0z"
	/>
</g></g><g transform="translate(560,1040) scale(0.16,0.16)"><g transform="" style="fill: rgb(0, 0, 0);">
<path d="M250,0c138.077,0,250,111.93,250,250c0,138.077-111.923,250-250,250C111.93,500,0,388.077,0,250C0,111.93,111.93,0,250,0z"
	/>
</g></g><g transform="translate(640,1040) scale(0.16,0.16)"><g transform="" style="fill: rgb(0, 0, 0);">
<path d="M250,0c138.077,0,250,111.93,250,250c0,138.077-111.923,250-250,250C111.93,500,0,388.077,0,250C0,111.93,111.93,0,250,0z"
	/>
</g></g><g transform="translate(720,1040) scale(0.16,0.16)"><g transform="" style="fill: rgb(0, 0, 0);">
<path d="M250,0c138.077,0,250,111.93,250,250c0,138.077-111.923,250-250,250C111.93,500,0,388.077,0,250C0,111.93,111.93,0,250,0z"
	/>
</g></g><g transform="translate(800,1040) scale(0.16,0.16)"><g transform="" style="fill: rgb(0, 0, 0);">
<path d="M250,0c138.077,0,250,111.93,250,250c0,138.077-111.923,250-250,250C111.93,500,0,388.077,0,250C0,111.93,111.93,0,250,0z"
	/>
</g></g><g transform="translate(960,1040) scale(0.16,0.16)"><g transform="" style="fill: rgb(0, 0, 0);">
<path d="M250,0c138.077,0,250,111.93,250,250c0,138.077-111.923,250-250,250C111.93,500,0,388.077,0,250C0,111.93,111.93,0,250,0z"
	/>
</g></g><g transform="translate(1040,1040) scale(0.16,0.16)"><g transform="" style="fill: rgb(0, 0, 0);">
<path d="M250,0c138.077,0,250,111.93,250,250c0,138.077-111.923,250-250,250C111.93,500,0,388.077,0,250C0,111.93,111.93,0,250,0z"
	/>
</g></g><g transform="translate(1280,1040) scale(0.16,0.16)"><g transform="" style="fill: rgb(0, 0, 0);">
<path d="M250,0c138.077,0,250,111.93,250,250c0,138.077-111.923,250-250,250C111.93,500,0,388.077,0,250C0,111.93,111.93,0,250,0z"
	/>
</g></g><g transform="translate(1520,1040) scale(0.16,0.16)"><g transform="" style="fill: rgb(0, 0, 0);">
<path d="M250,0c138.077,0,250,111.93,250,250c0,138.077-111.923,250-250,250C111.93,500,0,388.077,0,250C0,111.93,111.93,0,250,0z"
	/>
</g></g><g transform="translate(0,1120) scale(0.16,0.16)"><g transform="" style="fill: rgb(0, 0, 0);">
<path d="M250,0c138.077,0,250,111.93,250,250c0,138.077-111.923,250-250,250C111.93,500,0,388.077,0,250C0,111.93,111.93,0,250,0z"
	/>
</g></g><g transform="translate(160,1120) scale(0.16,0.16)"><g transform="" style="fill: rgb(0, 0, 0);">
<path d="M250,0c138.077,0,250,111.93,250,250c0,138.077-111.923,250-250,250C111.93,500,0,388.077,0,250C0,111.93,111.93,0,250,0z"
	/>
</g></g><g transform="translate(320,1120) scale(0.16,0.16)"><g transform="" style="fill: rgb(0, 0, 0);">
<path d="M250,0c138.077,0,250,111.93,250,250c0,138.077-111.923,250-250,250C111.93,500,0,388.077,0,250C0,111.93,111.93,0,250,0z"
	/>
</g></g><g transform="translate(480,1120) scale(0.16,0.16)"><g transform="" style="fill: rgb(0, 0, 0);">
<path d="M250,0c138.077,0,250,111.93,250,250c0,138.077-111.923,250-250,250C111.93,500,0,388.077,0,250C0,111.93,111.93,0,250,0z"
	/>
</g></g><g transform="translate(560,1120) scale(0.16,0.16)"><g transform="" style="fill: rgb(0, 0, 0);">
<path d="M250,0c138.077,0,250,111.93,250,250c0,138.077-111.923,250-250,250C111.93,500,0,388.077,0,250C0,111.93,111.93,0,250,0z"
	/>
</g></g><g transform="translate(640,1120) scale(0.16,0.16)"><g transform="" style="fill: rgb(0, 0, 0);">
<path d="M250,0c138.077,0,250,111.93,250,250c0,138.077-111.923,250-250,250C111.93,500,0,388.077,0,250C0,111.93,111.93,0,250,0z"
	/>
</g></g><g transform="translate(720,1120) scale(0.16,0.16)"><g transform="" style="fill: rgb(0, 0, 0);">
<path d="M250,0c138.077,0,250,111.93,250,250c0,138.077-111.923,250-250,250C111.93,500,0,388.077,0,250C0,111.93,111.93,0,250,0z"
	/>
</g></g><g transform="translate(1040,1120) scale(0.16,0.16)"><g transform="" style="fill: rgb(0, 0, 0);">
<path d="M250,0c138.077,0,250,111.93,250,250c0,138.077-111.923,250-250,250C111.93,500,0,388.077,0,250C0,111.93,111.93,0,250,0z"
	/>
</g></g><g transform="translate(1120,1120) scale(0.16,0.16)"><g transform="" style="fill: rgb(0, 0, 0);">
<path d="M250,0c138.077,0,250,111.93,250,250c0,138.077-111.923,250-250,250C111.93,500,0,388.077,0,250C0,111.93,111.93,0,250,0z"
	/>
</g></g><g transform="translate(1200,1120) scale(0.16,0.16)"><g transform="" style="fill: rgb(0, 0, 0);">
<path d="M250,0c138.077,0,250,111.93,250,250c0,138.077-111.923,250-250,250C111.93,500,0,388.077,0,250C0,111.93,111.93,0,250,0z"
	/>
</g></g><g transform="translate(1360,1120) scale(0.16,0.16)"><g transform="" style="fill: rgb(0, 0, 0);">
<path d="M250,0c138.077,0,250,111.93,250,250c0,138.077-111.923,250-250,250C111.93,500,0,388.077,0,250C0,111.93,111.93,0,250,0z"
	/>
</g></g><g transform="translate(1520,1120) scale(0.16,0.16)"><g transform="" style="fill: rgb(0, 0, 0);">
<path d="M250,0c138.077,0,250,111.93,250,250c0,138.077-111.923,250-250,250C111.93,500,0,388.077,0,250C0,111.93,111.93,0,250,0z"
	/>
</g></g><g transform="translate(1680,1120) scale(0.16,0.16)"><g transform="" style="fill: rgb(0, 0, 0);">
<path d="M250,0c138.077,0,250,111.93,250,250c0,138.077-111.923,250-250,250C111.93,500,0,388.077,0,250C0,111.93,111.93,0,250,0z"
	/>
</g></g><g transform="translate(1840,1120) scale(0.16,0.16)"><g transform="" style="fill: rgb(0, 0, 0);">
<path d="M250,0c138.077,0,250,111.93,250,250c0,138.077-111.923,250-250,250C111.93,500,0,388.077,0,250C0,111.93,111.93,0,250,0z"
	/>
</g></g><g transform="translate(1920,1120) scale(0.16,0.16)"><g transform="" style="fill: rgb(0, 0, 0);">
<path d="M250,0c138.077,0,250,111.93,250,250c0,138.077-111.923,250-250,250C111.93,500,0,388.077,0,250C0,111.93,111.93,0,250,0z"
	/>
</g></g><g transform="translate(0,1200) scale(0.16,0.16)"><g transform="" style="fill: rgb(0, 0, 0);">
<path d="M250,0c138.077,0,250,111.93,250,250c0,138.077-111.923,250-250,250C111.93,500,0,388.077,0,250C0,111.93,111.93,0,250,0z"
	/>
</g></g><g transform="translate(160,1200) scale(0.16,0.16)"><g transform="" style="fill: rgb(0, 0, 0);">
<path d="M250,0c138.077,0,250,111.93,250,250c0,138.077-111.923,250-250,250C111.93,500,0,388.077,0,250C0,111.93,111.93,0,250,0z"
	/>
</g></g><g transform="translate(320,1200) scale(0.16,0.16)"><g transform="" style="fill: rgb(0, 0, 0);">
<path d="M250,0c138.077,0,250,111.93,250,250c0,138.077-111.923,250-250,250C111.93,500,0,388.077,0,250C0,111.93,111.93,0,250,0z"
	/>
</g></g><g transform="translate(400,1200) scale(0.16,0.16)"><g transform="" style="fill: rgb(0, 0, 0);">
<path d="M250,0c138.077,0,250,111.93,250,250c0,138.077-111.923,250-250,250C111.93,500,0,388.077,0,250C0,111.93,111.93,0,250,0z"
	/>
</g></g><g transform="translate(560,1200) scale(0.16,0.16)"><g transform="" style="fill: rgb(0, 0, 0);">
<path d="M250,0c138.077,0,250,111.93,250,250c0,138.077-111.923,250-250,250C111.93,500,0,388.077,0,250C0,111.93,111.93,0,250,0z"
	/>
</g></g><g transform="translate(640,1200) scale(0.16,0.16)"><g transform="" style="fill: rgb(0, 0, 0);">
<path d="M250,0c138.077,0,250,111.93,250,250c0,138.077-111.923,250-250,250C111.93,500,0,388.077,0,250C0,111.93,111.93,0,250,0z"
	/>
</g></g><g transform="translate(720,1200) scale(0.16,0.16)"><g transform="" style="fill: rgb(0, 0, 0);">
<path d="M250,0c138.077,0,250,111.93,250,250c0,138.077-111.923,250-250,250C111.93,500,0,388.077,0,250C0,111.93,111.93,0,250,0z"
	/>
</g></g><g transform="translate(960,1200) scale(0.16,0.16)"><g transform="" style="fill: rgb(0, 0, 0);">
<path d="M250,0c138.077,0,250,111.93,250,250c0,138.077-111.923,250-250,250C111.93,500,0,388.077,0,250C0,111.93,111.93,0,250,0z"
	/>
</g></g><g transform="translate(1120,1200) scale(0.16,0.16)"><g transform="" style="fill: rgb(0, 0, 0);">
<path d="M250,0c138.077,0,250,111.93,250,250c0,138.077-111.923,250-250,250C111.93,500,0,388.077,0,250C0,111.93,111.93,0,250,0z"
	/>
</g></g><g transform="translate(1200,1200) scale(0.16,0.16)"><g transform="" style="fill: rgb(0, 0, 0);">
<path d="M250,0c138.077,0,250,111.93,250,250c0,138.077-111.923,250-250,250C111.93,500,0,388.077,0,250C0,111.93,111.93,0,250,0z"
	/>
</g></g><g transform="translate(1280,1200) scale(0.16,0.16)"><g transform="" style="fill: rgb(0, 0, 0);">
<path d="M250,0c138.077,0,250,111.93,250,250c0,138.077-111.923,250-250,250C111.93,500,0,388.077,0,250C0,111.93,111.93,0,250,0z"
	/>
</g></g><g transform="translate(1920,1200) scale(0.16,0.16)"><g transform="" style="fill: rgb(0, 0, 0);">
<path d="M250,0c138.077,0,250,111.93,250,250c0,138.077-111.923,250-250,250C111.93,500,0,388.077,0,250C0,111.93,111.93,0,250,0z"
	/>
</g></g><g transform="translate(0,1280) scale(0.16,0.16)"><g transform="" style="fill: rgb(0, 0, 0);">
<path d="M250,0c138.077,0,250,111.93,250,250c0,138.077-111.923,250-250,250C111.93,500,0,388.077,0,250C0,111.93,111.93,0,250,0z"
	/>
</g></g><g transform="translate(240,1280) scale(0.16,0.16)"><g transform="" style="fill: rgb(0, 0, 0);">
<path d="M250,0c138.077,0,250,111.93,250,250c0,138.077-111.923,250-250,250C111.93,500,0,388.077,0,250C0,111.93,111.93,0,250,0z"
	/>
</g></g><g transform="translate(400,1280) scale(0.16,0.16)"><g transform="" style="fill: rgb(0, 0, 0);">
<path d="M250,0c138.077,0,250,111.93,250,250c0,138.077-111.923,250-250,250C111.93,500,0,388.077,0,250C0,111.93,111.93,0,250,0z"
	/>
</g></g><g transform="translate(480,1280) scale(0.16,0.16)"><g transform="" style="fill: rgb(0, 0, 0);">
<path d="M250,0c138.077,0,250,111.93,250,250c0,138.077-111.923,250-250,250C111.93,500,0,388.077,0,250C0,111.93,111.93,0,250,0z"
	/>
</g></g><g transform="translate(640,1280) scale(0.16,0.16)"><g transform="" style="fill: rgb(0, 0, 0);">
<path d="M250,0c138.077,0,250,111.93,250,250c0,138.077-111.923,250-250,250C111.93,500,0,388.077,0,250C0,111.93,111.93,0,250,0z"
	/>
</g></g><g transform="translate(800,1280) scale(0.16,0.16)"><g transform="" style="fill: rgb(0, 0, 0);">
<path d="M250,0c138.077,0,250,111.93,250,250c0,138.077-111.923,250-250,250C111.93,500,0,388.077,0,250C0,111.93,111.93,0,250,0z"
	/>
</g></g><g transform="translate(960,1280) scale(0.16,0.16)"><g transform="" style="fill: rgb(0, 0, 0);">
<path d="M250,0c138.077,0,250,111.93,250,250c0,138.077-111.923,250-250,250C111.93,500,0,388.077,0,250C0,111.93,111.93,0,250,0z"
	/>
</g></g><g transform="translate(1040,1280) scale(0.16,0.16)"><g transform="" style="fill: rgb(0, 0, 0);">
<path d="M250,0c138.077,0,250,111.93,250,250c0,138.077-111.923,250-250,250C111.93,500,0,388.077,0,250C0,111.93,111.93,0,250,0z"
	/>
</g></g><g transform="translate(1120,1280) scale(0.16,0.16)"><g transform="" style="fill: rgb(0, 0, 0);">
<path d="M250,0c138.077,0,250,111.93,250,250c0,138.077-111.923,250-250,250C111.93,500,0,388.077,0,250C0,111.93,111.93,0,250,0z"
	/>
</g></g><g transform="translate(1200,1280) scale(0.16,0.16)"><g transform="" style="fill: rgb(0, 0, 0);">
<path d="M250,0c138.077,0,250,111.93,250,250c0,138.077-111.923,250-250,250C111.93,500,0,388.077,0,250C0,111.93,111.93,0,250,0z"
	/>
</g></g><g transform="translate(1280,1280) scale(0.16,0.16)"><g transform="" style="fill: rgb(0, 0, 0);">
<path d="M250,0c138.077,0,250,111.93,250,250c0,138.077-111.923,250-250,250C111.93,500,0,388.077,0,250C0,111.93,111.93,0,250,0z"
	/>
</g></g><g transform="translate(1360,1280) scale(0.16,0.16)"><g transform="" style="fill: rgb(0, 0, 0);">
<path d="M250,0c138.077,0,250,111.93,250,250c0,138.077-111.923,250-250,250C111.93,500,0,388.077,0,250C0,111.93,111.93,0,250,0z"
	/>
</g></g><g transform="translate(1440,1280) scale(0.16,0.16)"><g transform="" style="fill: rgb(0, 0, 0);">
<path d="M250,0c138.077,0,250,111.93,250,250c0,138.077-111.923,250-250,250C111.93,500,0,388.077,0,250C0,111.93,111.93,0,250,0z"
	/>
</g></g><g transform="translate(1520,1280) scale(0.16,0.16)"><g transform="" style="fill: rgb(0, 0, 0);">
<path d="M250,0c138.077,0,250,111.93,250,250c0,138.077-111.923,250-250,250C111.93,500,0,388.077,0,250C0,111.93,111.93,0,250,0z"
	/>
</g></g><g transform="translate(1600,1280) scale(0.16,0.16)"><g transform="" style="fill: rgb(0, 0, 0);">
<path d="M250,0c138.077,0,250,111.93,250,250c0,138.077-111.923,250-250,250C111.93,500,0,388.077,0,250C0,111.93,111.93,0,250,0z"
	/>
</g></g><g transform="translate(1680,1280) scale(0.16,0.16)"><g transform="" style="fill: rgb(0, 0, 0);">
<path d="M250,0c138.077,0,250,111.93,250,250c0,138.077-111.923,250-250,250C111.93,500,0,388.077,0,250C0,111.93,111.93,0,250,0z"
	/>
</g></g><g transform="translate(1760,1280) scale(0.16,0.16)"><g transform="" style="fill: rgb(0, 0, 0);">
<path d="M250,0c138.077,0,250,111.93,250,250c0,138.077-111.923,250-250,250C111.93,500,0,388.077,0,250C0,111.93,111.93,0,250,0z"
	/>
</g></g><g transform="translate(640,1360) scale(0.16,0.16)"><g transform="" style="fill: rgb(0, 0, 0);">
<path d="M250,0c138.077,0,250,111.93,250,250c0,138.077-111.923,250-250,250C111.93,500,0,388.077,0,250C0,111.93,111.93,0,250,0z"
	/>
</g></g><g transform="translate(720,1360) scale(0.16,0.16)"><g transform="" style="fill: rgb(0, 0, 0);">
<path d="M250,0c138.077,0,250,111.93,250,250c0,138.077-111.923,250-250,250C111.93,500,0,388.077,0,250C0,111.93,111.93,0,250,0z"
	/>
</g></g><g transform="translate(1280,1360) scale(0.16,0.16)"><g transform="" style="fill: rgb(0, 0, 0);">
<path d="M250,0c138.077,0,250,111.93,250,250c0,138.077-111.923,250-250,250C111.93,500,0,388.077,0,250C0,111.93,111.93,0,250,0z"
	/>
</g></g><g transform="translate(1600,1360) scale(0.16,0.16)"><g transform="" style="fill: rgb(0, 0, 0);">
<path d="M250,0c138.077,0,250,111.93,250,250c0,138.077-111.923,250-250,250C111.93,500,0,388.077,0,250C0,111.93,111.93,0,250,0z"
	/>
</g></g><g transform="translate(1680,1360) scale(0.16,0.16)"><g transform="" style="fill: rgb(0, 0, 0);">
<path d="M250,0c138.077,0,250,111.93,250,250c0,138.077-111.923,250-250,250C111.93,500,0,388.077,0,250C0,111.93,111.93,0,250,0z"
	/>
</g></g><g transform="translate(720,1440) scale(0.16,0.16)"><g transform="" style="fill: rgb(0, 0, 0);">
<path d="M250,0c138.077,0,250,111.93,250,250c0,138.077-111.923,250-250,250C111.93,500,0,388.077,0,250C0,111.93,111.93,0,250,0z"
	/>
</g></g><g transform="translate(800,1440) scale(0.16,0.16)"><g transform="" style="fill: rgb(0, 0, 0);">
<path d="M250,0c138.077,0,250,111.93,250,250c0,138.077-111.923,250-250,250C111.93,500,0,388.077,0,250C0,111.93,111.93,0,250,0z"
	/>
</g></g><g transform="translate(880,1440) scale(0.16,0.16)"><g transform="" style="fill: rgb(0, 0, 0);">
<path d="M250,0c138.077,0,250,111.93,250,250c0,138.077-111.923,250-250,250C111.93,500,0,388.077,0,250C0,111.93,111.93,0,250,0z"
	/>
</g></g><g transform="translate(960,1440) scale(0.16,0.16)"><g transform="" style="fill: rgb(0, 0, 0);">
<path d="M250,0c138.077,0,250,111.93,250,250c0,138.077-111.923,250-250,250C111.93,500,0,388.077,0,250C0,111.93,111.93,0,250,0z"
	/>
</g></g><g transform="translate(1280,1440) scale(0.16,0.16)"><g transform="" style="fill: rgb(0, 0, 0);">
<path d="M250,0c138.077,0,250,111.93,250,250c0,138.077-111.923,250-250,250C111.93,500,0,388.077,0,250C0,111.93,111.93,0,250,0z"
	/>
</g></g><g transform="translate(1440,1440) scale(0.16,0.16)"><g transform="" style="fill: rgb(0, 0, 0);">
<path d="M250,0c138.077,0,250,111.93,250,250c0,138.077-111.923,250-250,250C111.93,500,0,388.077,0,250C0,111.93,111.93,0,250,0z"
	/>
</g></g><g transform="translate(1600,1440) scale(0.16,0.16)"><g transform="" style="fill: rgb(0, 0, 0);">
<path d="M250,0c138.077,0,250,111.93,250,250c0,138.077-111.923,250-250,250C111.93,500,0,388.077,0,250C0,111.93,111.93,0,250,0z"
	/>
</g></g><g transform="translate(1840,1440) scale(0.16,0.16)"><g transform="" style="fill: rgb(0, 0, 0);">
<path d="M250,0c138.077,0,250,111.93,250,250c0,138.077-111.923,250-250,250C111.93,500,0,388.077,0,250C0,111.93,111.93,0,250,0z"
	/>
</g></g><g transform="translate(1920,1440) scale(0.16,0.16)"><g transform="" style="fill: rgb(0, 0, 0);">
<path d="M250,0c138.077,0,250,111.93,250,250c0,138.077-111.923,250-250,250C111.93,500,0,388.077,0,250C0,111.93,111.93,0,250,0z"
	/>
</g></g><g transform="translate(640,1520) scale(0.16,0.16)"><g transform="" style="fill: rgb(0, 0, 0);">
<path d="M250,0c138.077,0,250,111.93,250,250c0,138.077-111.923,250-250,250C111.93,500,0,388.077,0,250C0,111.93,111.93,0,250,0z"
	/>
</g></g><g transform="translate(800,1520) scale(0.16,0.16)"><g transform="" style="fill: rgb(0, 0, 0);">
<path d="M250,0c138.077,0,250,111.93,250,250c0,138.077-111.923,250-250,250C111.93,500,0,388.077,0,250C0,111.93,111.93,0,250,0z"
	/>
</g></g><g transform="translate(880,1520) scale(0.16,0.16)"><g transform="" style="fill: rgb(0, 0, 0);">
<path d="M250,0c138.077,0,250,111.93,250,250c0,138.077-111.923,250-250,250C111.93,500,0,388.077,0,250C0,111.93,111.93,0,250,0z"
	/>
</g></g><g transform="translate(1120,1520) scale(0.16,0.16)"><g transform="" style="fill: rgb(0, 0, 0);">
<path d="M250,0c138.077,0,250,111.93,250,250c0,138.077-111.923,250-250,250C111.93,500,0,388.077,0,250C0,111.93,111.93,0,250,0z"
	/>
</g></g><g transform="translate(1280,1520) scale(0.16,0.16)"><g transform="" style="fill: rgb(0, 0, 0);">
<path d="M250,0c138.077,0,250,111.93,250,250c0,138.077-111.923,250-250,250C111.93,500,0,388.077,0,250C0,111.93,111.93,0,250,0z"
	/>
</g></g><g transform="translate(1600,1520) scale(0.16,0.16)"><g transform="" style="fill: rgb(0, 0, 0);">
<path d="M250,0c138.077,0,250,111.93,250,250c0,138.077-111.923,250-250,250C111.93,500,0,388.077,0,250C0,111.93,111.93,0,250,0z"
	/>
</g></g><g transform="translate(640,1600) scale(0.16,0.16)"><g transform="" style="fill: rgb(0, 0, 0);">
<path d="M250,0c138.077,0,250,111.93,250,250c0,138.077-111.923,250-250,250C111.93,500,0,388.077,0,250C0,111.93,111.93,0,250,0z"
	/>
</g></g><g transform="translate(720,1600) scale(0.16,0.16)"><g transform="" style="fill: rgb(0, 0, 0);">
<path d="M250,0c138.077,0,250,111.93,250,250c0,138.077-111.923,250-250,250C111.93,500,0,388.077,0,250C0,111.93,111.93,0,250,0z"
	/>
</g></g><g transform="translate(880,1600) scale(0.16,0.16)"><g transform="" style="fill: rgb(0, 0, 0);">
<path d="M250,0c138.077,0,250,111.93,250,250c0,138.077-111.923,250-250,250C111.93,500,0,388.077,0,250C0,111.93,111.93,0,250,0z"
	/>
</g></g><g transform="translate(1200,1600) scale(0.16,0.16)"><g transform="" style="fill: rgb(0, 0, 0);">
<path d="M250,0c138.077,0,250,111.93,250,250c0,138.077-111.923,250-250,250C111.93,500,0,388.077,0,250C0,111.93,111.93,0,250,0z"
	/>
</g></g><g transform="translate(1280,1600) scale(0.16,0.16)"><g transform="" style="fill: rgb(0, 0, 0);">
<path d="M250,0c138.077,0,250,111.93,250,250c0,138.077-111.923,250-250,250C111.93,500,0,388.077,0,250C0,111.93,111.93,0,250,0z"
	/>
</g></g><g transform="translate(1360,1600) scale(0.16,0.16)"><g transform="" style="fill: rgb(0, 0, 0);">
<path d="M250,0c138.077,0,250,111.93,250,250c0,138.077-111.923,250-250,250C111.93,500,0,388.077,0,250C0,111.93,111.93,0,250,0z"
	/>
</g></g><g transform="translate(1440,1600) scale(0.16,0.16)"><g transform="" style="fill: rgb(0, 0, 0);">
<path d="M250,0c138.077,0,250,111.93,250,250c0,138.077-111.923,250-250,250C111.93,500,0,388.077,0,250C0,111.93,111.93,0,250,0z"
	/>
</g></g><g transform="translate(1520,1600) scale(0.16,0.16)"><g transform="" style="fill: rgb(0, 0, 0);">
<path d="M250,0c138.077,0,250,111.93,250,250c0,138.077-111.923,250-250,250C111.93,500,0,388.077,0,250C0,111.93,111.93,0,250,0z"
	/>
</g></g><g transform="translate(1600,1600) scale(0.16,0.16)"><g transform="" style="fill: rgb(0, 0, 0);">
<path d="M250,0c138.077,0,250,111.93,250,250c0,138.077-111.923,250-250,250C111.93,500,0,388.077,0,250C0,111.93,111.93,0,250,0z"
	/>
</g></g><g transform="translate(1760,1600) scale(0.16,0.16)"><g transform="" style="fill: rgb(0, 0, 0);">
<path d="M250,0c138.077,0,250,111.93,250,250c0,138.077-111.923,250-250,250C111.93,500,0,388.077,0,250C0,111.93,111.93,0,250,0z"
	/>
</g></g><g transform="translate(1840,1600) scale(0.16,0.16)"><g transform="" style="fill: rgb(0, 0, 0);">
<path d="M250,0c138.077,0,250,111.93,250,250c0,138.077-111.923,250-250,250C111.93,500,0,388.077,0,250C0,111.93,111.93,0,250,0z"
	/>
</g></g><g transform="translate(1920,1600) scale(0.16,0.16)"><g transform="" style="fill: rgb(0, 0, 0);">
<path d="M250,0c138.077,0,250,111.93,250,250c0,138.077-111.923,250-250,250C111.93,500,0,388.077,0,250C0,111.93,111.93,0,250,0z"
	/>
</g></g><g transform="translate(640,1680) scale(0.16,0.16)"><g transform="" style="fill: rgb(0, 0, 0);">
<path d="M250,0c138.077,0,250,111.93,250,250c0,138.077-111.923,250-250,250C111.93,500,0,388.077,0,250C0,111.93,111.93,0,250,0z"
	/>
</g></g><g transform="translate(960,1680) scale(0.16,0.16)"><g transform="" style="fill: rgb(0, 0, 0);">
<path d="M250,0c138.077,0,250,111.93,250,250c0,138.077-111.923,250-250,250C111.93,500,0,388.077,0,250C0,111.93,111.93,0,250,0z"
	/>
</g></g><g transform="translate(1040,1680) scale(0.16,0.16)"><g transform="" style="fill: rgb(0, 0, 0);">
<path d="M250,0c138.077,0,250,111.93,250,250c0,138.077-111.923,250-250,250C111.93,500,0,388.077,0,250C0,111.93,111.93,0,250,0z"
	/>
</g></g><g transform="translate(1360,1680) scale(0.16,0.16)"><g transform="" style="fill: rgb(0, 0, 0);">
<path d="M250,0c138.077,0,250,111.93,250,250c0,138.077-111.923,250-250,250C111.93,500,0,388.077,0,250C0,111.93,111.93,0,250,0z"
	/>
</g></g><g transform="translate(1440,1680) scale(0.16,0.16)"><g transform="" style="fill: rgb(0, 0, 0);">
<path d="M250,0c138.077,0,250,111.93,250,250c0,138.077-111.923,250-250,250C111.93,500,0,388.077,0,250C0,111.93,111.93,0,250,0z"
	/>
</g></g><g transform="translate(1600,1680) scale(0.16,0.16)"><g transform="" style="fill: rgb(0, 0, 0);">
<path d="M250,0c138.077,0,250,111.93,250,250c0,138.077-111.923,250-250,250C111.93,500,0,388.077,0,250C0,111.93,111.93,0,250,0z"
	/>
</g></g><g transform="translate(1680,1680) scale(0.16,0.16)"><g transform="" style="fill: rgb(0, 0, 0);">
<path d="M250,0c138.077,0,250,111.93,250,250c0,138.077-111.923,250-250,250C111.93,500,0,388.077,0,250C0,111.93,111.93,0,250,0z"
	/>
</g></g><g transform="translate(1840,1680) scale(0.16,0.16)"><g transform="" style="fill: rgb(0, 0, 0);">
<path d="M250,0c138.077,0,250,111.93,250,250c0,138.077-111.923,250-250,250C111.93,500,0,388.077,0,250C0,111.93,111.93,0,250,0z"
	/>
</g></g><g transform="translate(1920,1680) scale(0.16,0.16)"><g transform="" style="fill: rgb(0, 0, 0);">
<path d="M250,0c138.077,0,250,111.93,250,250c0,138.077-111.923,250-250,250C111.93,500,0,388.077,0,250C0,111.93,111.93,0,250,0z"
	/>
</g></g><g transform="translate(640,1760) scale(0.16,0.16)"><g transform="" style="fill: rgb(0, 0, 0);">
<path d="M250,0c138.077,0,250,111.93,250,250c0,138.077-111.923,250-250,250C111.93,500,0,388.077,0,250C0,111.93,111.93,0,250,0z"
	/>
</g></g><g transform="translate(800,1760) scale(0.16,0.16)"><g transform="" style="fill: rgb(0, 0, 0);">
<path d="M250,0c138.077,0,250,111.93,250,250c0,138.077-111.923,250-250,250C111.93,500,0,388.077,0,250C0,111.93,111.93,0,250,0z"
	/>
</g></g><g transform="translate(1040,1760) scale(0.16,0.16)"><g transform="" style="fill: rgb(0, 0, 0);">
<path d="M250,0c138.077,0,250,111.93,250,250c0,138.077-111.923,250-250,250C111.93,500,0,388.077,0,250C0,111.93,111.93,0,250,0z"
	/>
</g></g><g transform="translate(1120,1760) scale(0.16,0.16)"><g transform="" style="fill: rgb(0, 0, 0);">
<path d="M250,0c138.077,0,250,111.93,250,250c0,138.077-111.923,250-250,250C111.93,500,0,388.077,0,250C0,111.93,111.93,0,250,0z"
	/>
</g></g><g transform="translate(1200,1760) scale(0.16,0.16)"><g transform="" style="fill: rgb(0, 0, 0);">
<path d="M250,0c138.077,0,250,111.93,250,250c0,138.077-111.923,250-250,250C111.93,500,0,388.077,0,250C0,111.93,111.93,0,250,0z"
	/>
</g></g><g transform="translate(1280,1760) scale(0.16,0.16)"><g transform="" style="fill: rgb(0, 0, 0);">
<path d="M250,0c138.077,0,250,111.93,250,250c0,138.077-111.923,250-250,250C111.93,500,0,388.077,0,250C0,111.93,111.93,0,250,0z"
	/>
</g></g><g transform="translate(1520,1760) scale(0.16,0.16)"><g transform="" style="fill: rgb(0, 0, 0);">
<path d="M250,0c138.077,0,250,111.93,250,250c0,138.077-111.923,250-250,250C111.93,500,0,388.077,0,250C0,111.93,111.93,0,250,0z"
	/>
</g></g><g transform="translate(1680,1760) scale(0.16,0.16)"><g transform="" style="fill: rgb(0, 0, 0);">
<path d="M250,0c138.077,0,250,111.93,250,250c0,138.077-111.923,250-250,250C111.93,500,0,388.077,0,250C0,111.93,111.93,0,250,0z"
	/>
</g></g><g transform="translate(1760,1760) scale(0.16,0.16)"><g transform="" style="fill: rgb(0, 0, 0);">
<path d="M250,0c138.077,0,250,111.93,250,250c0,138.077-111.923,250-250,250C111.93,500,0,388.077,0,250C0,111.93,111.93,0,250,0z"
	/>
</g></g><g transform="translate(1920,1760) scale(0.16,0.16)"><g transform="" style="fill: rgb(0, 0, 0);">
<path d="M250,0c138.077,0,250,111.93,250,250c0,138.077-111.923,250-250,250C111.93,500,0,388.077,0,250C0,111.93,111.93,0,250,0z"
	/>
</g></g><g transform="translate(800,1840) scale(0.16,0.16)"><g transform="" style="fill: rgb(0, 0, 0);">
<path d="M250,0c138.077,0,250,111.93,250,250c0,138.077-111.923,250-250,250C111.93,500,0,388.077,0,250C0,111.93,111.93,0,250,0z"
	/>
</g></g><g transform="translate(960,1840) scale(0.16,0.16)"><g transform="" style="fill: rgb(0, 0, 0);">
<path d="M250,0c138.077,0,250,111.93,250,250c0,138.077-111.923,250-250,250C111.93,500,0,388.077,0,250C0,111.93,111.93,0,250,0z"
	/>
</g></g><g transform="translate(1040,1840) scale(0.16,0.16)"><g transform="" style="fill: rgb(0, 0, 0);">
<path d="M250,0c138.077,0,250,111.93,250,250c0,138.077-111.923,250-250,250C111.93,500,0,388.077,0,250C0,111.93,111.93,0,250,0z"
	/>
</g></g><g transform="translate(1200,1840) scale(0.16,0.16)"><g transform="" style="fill: rgb(0, 0, 0);">
<path d="M250,0c138.077,0,250,111.93,250,250c0,138.077-111.923,250-250,250C111.93,500,0,388.077,0,250C0,111.93,111.93,0,250,0z"
	/>
</g></g><g transform="translate(1280,1840) scale(0.16,0.16)"><g transform="" style="fill: rgb(0, 0, 0);">
<path d="M250,0c138.077,0,250,111.93,250,250c0,138.077-111.923,250-250,250C111.93,500,0,388.077,0,250C0,111.93,111.93,0,250,0z"
	/>
</g></g><g transform="translate(1360,1840) scale(0.16,0.16)"><g transform="" style="fill: rgb(0, 0, 0);">
<path d="M250,0c138.077,0,250,111.93,250,250c0,138.077-111.923,250-250,250C111.93,500,0,388.077,0,250C0,111.93,111.93,0,250,0z"
	/>
</g></g><g transform="translate(1440,1840) scale(0.16,0.16)"><g transform="" style="fill: rgb(0, 0, 0);">
<path d="M250,0c138.077,0,250,111.93,250,250c0,138.077-111.923,250-250,250C111.93,500,0,388.077,0,250C0,111.93,111.93,0,250,0z"
	/>
</g></g><g transform="translate(1920,1840) scale(0.16,0.16)"><g transform="" style="fill: rgb(0, 0, 0);">
<path d="M250,0c138.077,0,250,111.93,250,250c0,138.077-111.923,250-250,250C111.93,500,0,388.077,0,250C0,111.93,111.93,0,250,0z"
	/>
</g></g><g transform="translate(640,1920) scale(0.16,0.16)"><g transform="" style="fill: rgb(0, 0, 0);">
<path d="M250,0c138.077,0,250,111.93,250,250c0,138.077-111.923,250-250,250C111.93,500,0,388.077,0,250C0,111.93,111.93,0,250,0z"
	/>
</g></g><g transform="translate(720,1920) scale(0.16,0.16)"><g transform="" style="fill: rgb(0, 0, 0);">
<path d="M250,0c138.077,0,250,111.93,250,250c0,138.077-111.923,250-250,250C111.93,500,0,388.077,0,250C0,111.93,111.93,0,250,0z"
	/>
</g></g><g transform="translate(800,1920) scale(0.16,0.16)"><g transform="" style="fill: rgb(0, 0, 0);">
<path d="M250,0c138.077,0,250,111.93,250,250c0,138.077-111.923,250-250,250C111.93,500,0,388.077,0,250C0,111.93,111.93,0,250,0z"
	/>
</g></g><g transform="translate(960,1920) scale(0.16,0.16)"><g transform="" style="fill: rgb(0, 0, 0);">
<path d="M250,0c138.077,0,250,111.93,250,250c0,138.077-111.923,250-250,250C111.93,500,0,388.077,0,250C0,111.93,111.93,0,250,0z"
	/>
</g></g><g transform="translate(1120,1920) scale(0.16,0.16)"><g transform="" style="fill: rgb(0, 0, 0);">
<path d="M250,0c138.077,0,250,111.93,250,250c0,138.077-111.923,250-250,250C111.93,500,0,388.077,0,250C0,111.93,111.93,0,250,0z"
	/>
</g></g><g transform="translate(1360,1920) scale(0.16,0.16)"><g transform="" style="fill: rgb(0, 0, 0);">
<path d="M250,0c138.077,0,250,111.93,250,250c0,138.077-111.923,250-250,250C111.93,500,0,388.077,0,250C0,111.93,111.93,0,250,0z"
	/>
</g></g><g transform="translate(1520,1920) scale(0.16,0.16)"><g transform="" style="fill: rgb(0, 0, 0);">
<path d="M250,0c138.077,0,250,111.93,250,250c0,138.077-111.923,250-250,250C111.93,500,0,388.077,0,250C0,111.93,111.93,0,250,0z"
	/>
</g></g><g transform="translate(1760,1920) scale(0.16,0.16)"><g transform="" style="fill: rgb(0, 0, 0);">
<path d="M250,0c138.077,0,250,111.93,250,250c0,138.077-111.923,250-250,250C111.93,500,0,388.077,0,250C0,111.93,111.93,0,250,0z"
	/>
</g></g><g transform="translate(1840,1920) scale(0.16,0.16)"><g transform="" style="fill: rgb(0, 0, 0);">
<path d="M250,0c138.077,0,250,111.93,250,250c0,138.077-111.923,250-250,250C111.93,500,0,388.077,0,250C0,111.93,111.93,0,250,0z"
	/>
</g></g><g transform="translate(1920,1920) scale(0.16,0.16)"><g transform="" style="fill: rgb(0, 0, 0);">
<path d="M250,0c138.077,0,250,111.93,250,250c0,138.077-111.923,250-250,250C111.93,500,0,388.077,0,250C0,111.93,111.93,0,250,0z"
	/>
</g></g><g transform="translate(0,0) scale(5.5445544554455, 5.5445544554455)"><g transform="" style="fill: rgb(0, 0, 0);">
<g>
	<path style="fill:none;" d="M90.055,71.25C87.113,70.234,85,67.451,85,64.166s2.113-6.066,5.052-7.084
		C87.113,56.066,85,53.283,85,50c0-3.284,2.113-6.068,5.052-7.083C87.113,41.899,85,39.117,85,35.833s2.113-6.067,5.052-7.083
		C87.113,27.733,85,24.951,85,21.667s2.113-6.068,5.053-7.083c-2.171-0.75-3.886-2.464-4.636-4.635C84.4,12.887,81.618,15,78.334,15
		c-3.285,0-6.068-2.114-7.084-5.055C70.234,12.886,67.451,15,64.166,15c-3.284,0-6.066-2.113-7.083-5.051
		C56.066,12.887,53.284,15,50,15s-6.068-2.113-7.083-5.052C41.9,12.887,39.117,15,35.833,15s-6.067-2.113-7.083-5.051
		C27.734,12.887,24.951,15,21.667,15s-6.068-2.114-7.083-5.054c-0.75,2.172-2.465,3.887-4.636,4.637
		c2.938,1.016,5.052,3.8,5.052,7.084s-2.114,6.066-5.052,7.083C12.887,29.766,15,32.549,15,35.833s-2.113,6.066-5.052,7.083
		C12.887,43.932,15,46.715,15,50s-2.113,6.068-5.051,7.082C12.887,58.1,15,60.881,15,64.166s-2.115,6.068-5.055,7.084
		C12.886,72.266,15,75.049,15,78.334c0,3.283-2.114,6.066-5.052,7.082c2.17,0.75,3.885,2.465,4.635,4.635
		c1.016-2.938,3.8-5.051,7.084-5.051s6.067,2.113,7.083,5.051C29.766,87.113,32.549,85,35.833,85s6.067,2.113,7.083,5.051
		C43.932,87.113,46.715,85,50,85s6.068,2.113,7.083,5.051C58.1,87.113,60.882,85,64.166,85c3.285,0,6.068,2.113,7.084,5.055
		C72.266,87.113,75.049,85,78.334,85c3.284,0,6.066,2.113,7.083,5.051c0.75-2.17,2.465-3.885,4.635-4.635
		C87.113,84.4,85,81.617,85,78.334C85,75.049,87.113,72.266,90.055,71.25z"/>
	<path d="M100,21.667c0-3.284-2.113-6.068-5.053-7.083C97.887,13.567,100,10.784,100,7.5c0-4.144-3.357-7.5-7.5-7.5
		c-3.284,0-6.066,2.112-7.083,5.051C84.4,2.112,81.618,0,78.334,0c-3.285,0-6.068,2.114-7.084,5.054C70.234,2.114,67.451,0,64.166,0
		c-3.284,0-6.066,2.112-7.083,5.051C56.066,2.112,53.284,0,50,0s-6.068,2.112-7.083,5.052C41.9,2.112,39.117,0,35.833,0
		s-6.067,2.112-7.083,5.051C27.734,2.112,24.951,0,21.667,0s-6.068,2.114-7.083,5.053C13.568,2.114,10.784,0,7.5,0
		C3.357,0,0,3.356,0,7.5c0,3.284,2.114,6.067,5.053,7.083C2.114,15.599,0,18.383,0,21.667s2.113,6.066,5.051,7.083
		C2.113,29.766,0,32.549,0,35.833s2.113,6.066,5.052,7.083C2.113,43.932,0,46.715,0,50s2.113,6.068,5.051,7.082
		C2.113,58.1,0,60.881,0,64.166s2.114,6.068,5.054,7.084C2.114,72.266,0,75.049,0,78.334c0,3.283,2.113,6.066,5.051,7.082
		C2.113,86.434,0,89.215,0,92.5c0,4.143,3.357,7.5,7.5,7.5c0.518,0,1.023-0.053,1.512-0.152c2.608-0.533,4.716-2.426,5.572-4.898
		c1.015,2.938,3.799,5.051,7.083,5.051s6.067-2.111,7.083-5.051c1.016,2.938,3.799,5.051,7.083,5.051s6.067-2.111,7.083-5.051
		C43.932,97.887,46.715,100,50,100s6.068-2.113,7.083-5.053C58.1,97.885,60.882,100,64.166,100c3.285,0,6.068-2.115,7.084-5.055
		c1.016,2.939,3.799,5.055,7.084,5.055c3.284,0,6.066-2.113,7.083-5.053C86.434,97.887,89.216,100,92.5,100
		c4.143,0,7.5-3.357,7.5-7.5c0-3.285-2.113-6.066-5.052-7.084C97.887,84.4,100,81.617,100,78.334c0-3.285-2.113-6.068-5.055-7.084
		c2.939-1.016,5.055-3.799,5.055-7.084s-2.113-6.066-5.052-7.084C97.887,56.066,100,53.283,100,50c0-3.284-2.113-6.068-5.052-7.083
		c2.938-1.018,5.052-3.8,5.052-7.084s-2.113-6.067-5.052-7.083C97.887,27.733,100,24.951,100,21.667z M90.052,85.416
		c-2.17,0.75-3.885,2.465-4.635,4.635C84.4,87.113,81.618,85,78.334,85c-3.285,0-6.068,2.113-7.084,5.055
		C70.234,87.113,67.451,85,64.166,85c-3.284,0-6.066,2.113-7.083,5.051C56.066,87.113,53.284,85,50,85s-6.068,2.113-7.083,5.051
		C41.9,87.113,39.117,85,35.833,85s-6.067,2.113-7.083,5.051C27.734,87.113,24.951,85,21.667,85s-6.068,2.113-7.083,5.051
		c-0.75-2.17-2.465-3.885-4.635-4.635C12.887,84.4,15,81.617,15,78.334c0-3.285-2.115-6.068-5.055-7.084
		C12.886,70.234,15,67.451,15,64.166s-2.114-6.066-5.052-7.084C12.887,56.066,15,53.283,15,50c0-3.284-2.113-6.068-5.052-7.083
		c2.939-1.018,5.052-3.8,5.052-7.084s-2.113-6.067-5.051-7.083C12.887,27.733,15,24.951,15,21.667s-2.114-6.068-5.053-7.083
		c2.171-0.75,3.886-2.465,4.636-4.636c1.016,2.938,3.8,5.052,7.084,5.052s6.067-2.113,7.083-5.051
		C29.766,12.887,32.549,15,35.833,15s6.067-2.113,7.083-5.052C43.932,12.887,46.715,15,50,15s6.068-2.113,7.083-5.051
		C58.1,12.887,60.882,15,64.166,15c3.285,0,6.068-2.114,7.084-5.055C72.266,12.886,75.049,15,78.334,15
		c3.284,0,6.066-2.113,7.083-5.051c0.75,2.17,2.465,3.885,4.636,4.635C87.113,15.599,85,18.383,85,21.667s2.113,6.066,5.052,7.083
		C87.113,29.766,85,32.549,85,35.833s2.113,6.066,5.052,7.083C87.113,43.932,85,46.715,85,50s2.113,6.068,5.052,7.082
		C87.113,58.1,85,60.881,85,64.166s2.113,6.068,5.055,7.084C87.113,72.266,85,75.049,85,78.334C85,81.617,87.113,84.4,90.052,85.416
		z"/>
</g>
</g></g><g transform="translate(1440,0) scale(5.5445544554455, 5.5445544554455)"><g transform="" style="fill: rgb(0, 0, 0);">
<g>
	<path style="fill:none;" d="M90.055,71.25C87.113,70.234,85,67.451,85,64.166s2.113-6.066,5.052-7.084
		C87.113,56.066,85,53.283,85,50c0-3.284,2.113-6.068,5.052-7.083C87.113,41.899,85,39.117,85,35.833s2.113-6.067,5.052-7.083
		C87.113,27.733,85,24.951,85,21.667s2.113-6.068,5.053-7.083c-2.171-0.75-3.886-2.464-4.636-4.635C84.4,12.887,81.618,15,78.334,15
		c-3.285,0-6.068-2.114-7.084-5.055C70.234,12.886,67.451,15,64.166,15c-3.284,0-6.066-2.113-7.083-5.051
		C56.066,12.887,53.284,15,50,15s-6.068-2.113-7.083-5.052C41.9,12.887,39.117,15,35.833,15s-6.067-2.113-7.083-5.051
		C27.734,12.887,24.951,15,21.667,15s-6.068-2.114-7.083-5.054c-0.75,2.172-2.465,3.887-4.636,4.637
		c2.938,1.016,5.052,3.8,5.052,7.084s-2.114,6.066-5.052,7.083C12.887,29.766,15,32.549,15,35.833s-2.113,6.066-5.052,7.083
		C12.887,43.932,15,46.715,15,50s-2.113,6.068-5.051,7.082C12.887,58.1,15,60.881,15,64.166s-2.115,6.068-5.055,7.084
		C12.886,72.266,15,75.049,15,78.334c0,3.283-2.114,6.066-5.052,7.082c2.17,0.75,3.885,2.465,4.635,4.635
		c1.016-2.938,3.8-5.051,7.084-5.051s6.067,2.113,7.083,5.051C29.766,87.113,32.549,85,35.833,85s6.067,2.113,7.083,5.051
		C43.932,87.113,46.715,85,50,85s6.068,2.113,7.083,5.051C58.1,87.113,60.882,85,64.166,85c3.285,0,6.068,2.113,7.084,5.055
		C72.266,87.113,75.049,85,78.334,85c3.284,0,6.066,2.113,7.083,5.051c0.75-2.17,2.465-3.885,4.635-4.635
		C87.113,84.4,85,81.617,85,78.334C85,75.049,87.113,72.266,90.055,71.25z"/>
	<path d="M100,21.667c0-3.284-2.113-6.068-5.053-7.083C97.887,13.567,100,10.784,100,7.5c0-4.144-3.357-7.5-7.5-7.5
		c-3.284,0-6.066,2.112-7.083,5.051C84.4,2.112,81.618,0,78.334,0c-3.285,0-6.068,2.114-7.084,5.054C70.234,2.114,67.451,0,64.166,0
		c-3.284,0-6.066,2.112-7.083,5.051C56.066,2.112,53.284,0,50,0s-6.068,2.112-7.083,5.052C41.9,2.112,39.117,0,35.833,0
		s-6.067,2.112-7.083,5.051C27.734,2.112,24.951,0,21.667,0s-6.068,2.114-7.083,5.053C13.568,2.114,10.784,0,7.5,0
		C3.357,0,0,3.356,0,7.5c0,3.284,2.114,6.067,5.053,7.083C2.114,15.599,0,18.383,0,21.667s2.113,6.066,5.051,7.083
		C2.113,29.766,0,32.549,0,35.833s2.113,6.066,5.052,7.083C2.113,43.932,0,46.715,0,50s2.113,6.068,5.051,7.082
		C2.113,58.1,0,60.881,0,64.166s2.114,6.068,5.054,7.084C2.114,72.266,0,75.049,0,78.334c0,3.283,2.113,6.066,5.051,7.082
		C2.113,86.434,0,89.215,0,92.5c0,4.143,3.357,7.5,7.5,7.5c0.518,0,1.023-0.053,1.512-0.152c2.608-0.533,4.716-2.426,5.572-4.898
		c1.015,2.938,3.799,5.051,7.083,5.051s6.067-2.111,7.083-5.051c1.016,2.938,3.799,5.051,7.083,5.051s6.067-2.111,7.083-5.051
		C43.932,97.887,46.715,100,50,100s6.068-2.113,7.083-5.053C58.1,97.885,60.882,100,64.166,100c3.285,0,6.068-2.115,7.084-5.055
		c1.016,2.939,3.799,5.055,7.084,5.055c3.284,0,6.066-2.113,7.083-5.053C86.434,97.887,89.216,100,92.5,100
		c4.143,0,7.5-3.357,7.5-7.5c0-3.285-2.113-6.066-5.052-7.084C97.887,84.4,100,81.617,100,78.334c0-3.285-2.113-6.068-5.055-7.084
		c2.939-1.016,5.055-3.799,5.055-7.084s-2.113-6.066-5.052-7.084C97.887,56.066,100,53.283,100,50c0-3.284-2.113-6.068-5.052-7.083
		c2.938-1.018,5.052-3.8,5.052-7.084s-2.113-6.067-5.052-7.083C97.887,27.733,100,24.951,100,21.667z M90.052,85.416
		c-2.17,0.75-3.885,2.465-4.635,4.635C84.4,87.113,81.618,85,78.334,85c-3.285,0-6.068,2.113-7.084,5.055
		C70.234,87.113,67.451,85,64.166,85c-3.284,0-6.066,2.113-7.083,5.051C56.066,87.113,53.284,85,50,85s-6.068,2.113-7.083,5.051
		C41.9,87.113,39.117,85,35.833,85s-6.067,2.113-7.083,5.051C27.734,87.113,24.951,85,21.667,85s-6.068,2.113-7.083,5.051
		c-0.75-2.17-2.465-3.885-4.635-4.635C12.887,84.4,15,81.617,15,78.334c0-3.285-2.115-6.068-5.055-7.084
		C12.886,70.234,15,67.451,15,64.166s-2.114-6.066-5.052-7.084C12.887,56.066,15,53.283,15,50c0-3.284-2.113-6.068-5.052-7.083
		c2.939-1.018,5.052-3.8,5.052-7.084s-2.113-6.067-5.051-7.083C12.887,27.733,15,24.951,15,21.667s-2.114-6.068-5.053-7.083
		c2.171-0.75,3.886-2.465,4.636-4.636c1.016,2.938,3.8,5.052,7.084,5.052s6.067-2.113,7.083-5.051
		C29.766,12.887,32.549,15,35.833,15s6.067-2.113,7.083-5.052C43.932,12.887,46.715,15,50,15s6.068-2.113,7.083-5.051
		C58.1,12.887,60.882,15,64.166,15c3.285,0,6.068-2.114,7.084-5.055C72.266,12.886,75.049,15,78.334,15
		c3.284,0,6.066-2.113,7.083-5.051c0.75,2.17,2.465,3.885,4.636,4.635C87.113,15.599,85,18.383,85,21.667s2.113,6.066,5.052,7.083
		C87.113,29.766,85,32.549,85,35.833s2.113,6.066,5.052,7.083C87.113,43.932,85,46.715,85,50s2.113,6.068,5.052,7.082
		C87.113,58.1,85,60.881,85,64.166s2.113,6.068,5.055,7.084C87.113,72.266,85,75.049,85,78.334C85,81.617,87.113,84.4,90.052,85.416
		z"/>
</g>
</g></g><g transform="translate(0,1440) scale(5.5445544554455, 5.5445544554455)"><g transform="" style="fill: rgb(0, 0, 0);">
<g>
	<path style="fill:none;" d="M90.055,71.25C87.113,70.234,85,67.451,85,64.166s2.113-6.066,5.052-7.084
		C87.113,56.066,85,53.283,85,50c0-3.284,2.113-6.068,5.052-7.083C87.113,41.899,85,39.117,85,35.833s2.113-6.067,5.052-7.083
		C87.113,27.733,85,24.951,85,21.667s2.113-6.068,5.053-7.083c-2.171-0.75-3.886-2.464-4.636-4.635C84.4,12.887,81.618,15,78.334,15
		c-3.285,0-6.068-2.114-7.084-5.055C70.234,12.886,67.451,15,64.166,15c-3.284,0-6.066-2.113-7.083-5.051
		C56.066,12.887,53.284,15,50,15s-6.068-2.113-7.083-5.052C41.9,12.887,39.117,15,35.833,15s-6.067-2.113-7.083-5.051
		C27.734,12.887,24.951,15,21.667,15s-6.068-2.114-7.083-5.054c-0.75,2.172-2.465,3.887-4.636,4.637
		c2.938,1.016,5.052,3.8,5.052,7.084s-2.114,6.066-5.052,7.083C12.887,29.766,15,32.549,15,35.833s-2.113,6.066-5.052,7.083
		C12.887,43.932,15,46.715,15,50s-2.113,6.068-5.051,7.082C12.887,58.1,15,60.881,15,64.166s-2.115,6.068-5.055,7.084
		C12.886,72.266,15,75.049,15,78.334c0,3.283-2.114,6.066-5.052,7.082c2.17,0.75,3.885,2.465,4.635,4.635
		c1.016-2.938,3.8-5.051,7.084-5.051s6.067,2.113,7.083,5.051C29.766,87.113,32.549,85,35.833,85s6.067,2.113,7.083,5.051
		C43.932,87.113,46.715,85,50,85s6.068,2.113,7.083,5.051C58.1,87.113,60.882,85,64.166,85c3.285,0,6.068,2.113,7.084,5.055
		C72.266,87.113,75.049,85,78.334,85c3.284,0,6.066,2.113,7.083,5.051c0.75-2.17,2.465-3.885,4.635-4.635
		C87.113,84.4,85,81.617,85,78.334C85,75.049,87.113,72.266,90.055,71.25z"/>
	<path d="M100,21.667c0-3.284-2.113-6.068-5.053-7.083C97.887,13.567,100,10.784,100,7.5c0-4.144-3.357-7.5-7.5-7.5
		c-3.284,0-6.066,2.112-7.083,5.051C84.4,2.112,81.618,0,78.334,0c-3.285,0-6.068,2.114-7.084,5.054C70.234,2.114,67.451,0,64.166,0
		c-3.284,0-6.066,2.112-7.083,5.051C56.066,2.112,53.284,0,50,0s-6.068,2.112-7.083,5.052C41.9,2.112,39.117,0,35.833,0
		s-6.067,2.112-7.083,5.051C27.734,2.112,24.951,0,21.667,0s-6.068,2.114-7.083,5.053C13.568,2.114,10.784,0,7.5,0
		C3.357,0,0,3.356,0,7.5c0,3.284,2.114,6.067,5.053,7.083C2.114,15.599,0,18.383,0,21.667s2.113,6.066,5.051,7.083
		C2.113,29.766,0,32.549,0,35.833s2.113,6.066,5.052,7.083C2.113,43.932,0,46.715,0,50s2.113,6.068,5.051,7.082
		C2.113,58.1,0,60.881,0,64.166s2.114,6.068,5.054,7.084C2.114,72.266,0,75.049,0,78.334c0,3.283,2.113,6.066,5.051,7.082
		C2.113,86.434,0,89.215,0,92.5c0,4.143,3.357,7.5,7.5,7.5c0.518,0,1.023-0.053,1.512-0.152c2.608-0.533,4.716-2.426,5.572-4.898
		c1.015,2.938,3.799,5.051,7.083,5.051s6.067-2.111,7.083-5.051c1.016,2.938,3.799,5.051,7.083,5.051s6.067-2.111,7.083-5.051
		C43.932,97.887,46.715,100,50,100s6.068-2.113,7.083-5.053C58.1,97.885,60.882,100,64.166,100c3.285,0,6.068-2.115,7.084-5.055
		c1.016,2.939,3.799,5.055,7.084,5.055c3.284,0,6.066-2.113,7.083-5.053C86.434,97.887,89.216,100,92.5,100
		c4.143,0,7.5-3.357,7.5-7.5c0-3.285-2.113-6.066-5.052-7.084C97.887,84.4,100,81.617,100,78.334c0-3.285-2.113-6.068-5.055-7.084
		c2.939-1.016,5.055-3.799,5.055-7.084s-2.113-6.066-5.052-7.084C97.887,56.066,100,53.283,100,50c0-3.284-2.113-6.068-5.052-7.083
		c2.938-1.018,5.052-3.8,5.052-7.084s-2.113-6.067-5.052-7.083C97.887,27.733,100,24.951,100,21.667z M90.052,85.416
		c-2.17,0.75-3.885,2.465-4.635,4.635C84.4,87.113,81.618,85,78.334,85c-3.285,0-6.068,2.113-7.084,5.055
		C70.234,87.113,67.451,85,64.166,85c-3.284,0-6.066,2.113-7.083,5.051C56.066,87.113,53.284,85,50,85s-6.068,2.113-7.083,5.051
		C41.9,87.113,39.117,85,35.833,85s-6.067,2.113-7.083,5.051C27.734,87.113,24.951,85,21.667,85s-6.068,2.113-7.083,5.051
		c-0.75-2.17-2.465-3.885-4.635-4.635C12.887,84.4,15,81.617,15,78.334c0-3.285-2.115-6.068-5.055-7.084
		C12.886,70.234,15,67.451,15,64.166s-2.114-6.066-5.052-7.084C12.887,56.066,15,53.283,15,50c0-3.284-2.113-6.068-5.052-7.083
		c2.939-1.018,5.052-3.8,5.052-7.084s-2.113-6.067-5.051-7.083C12.887,27.733,15,24.951,15,21.667s-2.114-6.068-5.053-7.083
		c2.171-0.75,3.886-2.465,4.636-4.636c1.016,2.938,3.8,5.052,7.084,5.052s6.067-2.113,7.083-5.051
		C29.766,12.887,32.549,15,35.833,15s6.067-2.113,7.083-5.052C43.932,12.887,46.715,15,50,15s6.068-2.113,7.083-5.051
		C58.1,12.887,60.882,15,64.166,15c3.285,0,6.068-2.114,7.084-5.055C72.266,12.886,75.049,15,78.334,15
		c3.284,0,6.066-2.113,7.083-5.051c0.75,2.17,2.465,3.885,4.636,4.635C87.113,15.599,85,18.383,85,21.667s2.113,6.066,5.052,7.083
		C87.113,29.766,85,32.549,85,35.833s2.113,6.066,5.052,7.083C87.113,43.932,85,46.715,85,50s2.113,6.068,5.052,7.082
		C87.113,58.1,85,60.881,85,64.166s2.113,6.068,5.055,7.084C87.113,72.266,85,75.049,85,78.334C85,81.617,87.113,84.4,90.052,85.416
		z"/>
</g>
</g></g><g transform="translate(160,160) scale(2.4, 2.4)"><g transform="" style="fill: rgb(0, 0, 0);">
<rect width="100" height="100"/>
</g></g><g transform="translate(1600,160) scale(2.4, 2.4)"><g transform="" style="fill: rgb(0, 0, 0);">
<rect width="100" height="100"/>
</g></g><g transform="translate(160,1600) scale(2.4, 2.4)"><g transform="" style="fill: rgb(0, 0, 0);">
<rect width="100" height="100"/>
</g></g></g></svg>
